<mxfile host="app.diagrams.net" modified="2024-05-03T15:00:34.089Z" agent="Mozilla/5.0 (Macintosh; Intel Mac OS X 10_15_7) AppleWebKit/537.36 (KHTML, like Gecko) Chrome/124.0.0.0 Safari/537.36" etag="yw6IkG_XG830Jgak3e_z" version="24.3.1" type="device">
  <diagram name="PÃ¡gina-1" id="ehix084fynhH_y8GmIC4">
    <mxGraphModel dx="1060" dy="718" grid="1" gridSize="10" guides="1" tooltips="1" connect="1" arrows="1" fold="1" page="1" pageScale="1" pageWidth="1169" pageHeight="1654" background="#000000" math="0" shadow="0">
      <root>
        <mxCell id="0" />
        <mxCell id="1" parent="0" />
        <mxCell id="0HYdjBVHhcaTYcicsQgm-4" style="edgeStyle=orthogonalEdgeStyle;rounded=0;orthogonalLoop=1;jettySize=auto;html=1;exitX=0.5;exitY=1;exitDx=0;exitDy=0;entryX=0.5;entryY=0;entryDx=0;entryDy=0;strokeColor=#FFFFFF;" edge="1" parent="1" source="0HYdjBVHhcaTYcicsQgm-1" target="0HYdjBVHhcaTYcicsQgm-2">
          <mxGeometry relative="1" as="geometry" />
        </mxCell>
        <mxCell id="0HYdjBVHhcaTYcicsQgm-5" value="True" style="edgeLabel;html=1;align=center;verticalAlign=middle;resizable=0;points=[];" vertex="1" connectable="0" parent="0HYdjBVHhcaTYcicsQgm-4">
          <mxGeometry x="-0.125" y="3" relative="1" as="geometry">
            <mxPoint x="-3" as="offset" />
          </mxGeometry>
        </mxCell>
        <mxCell id="0HYdjBVHhcaTYcicsQgm-1" value="&lt;font color=&quot;#ffffff&quot;&gt;Initialize: board&lt;br&gt;&lt;/font&gt;" style="rounded=0;whiteSpace=wrap;html=1;fillColor=#000000;strokeColor=#FFFFFF;" vertex="1" parent="1">
          <mxGeometry x="540" y="100" width="120" height="60" as="geometry" />
        </mxCell>
        <mxCell id="0HYdjBVHhcaTYcicsQgm-6" style="edgeStyle=orthogonalEdgeStyle;rounded=0;orthogonalLoop=1;jettySize=auto;html=1;entryX=0.5;entryY=0;entryDx=0;entryDy=0;strokeColor=#FFFFFF;" edge="1" parent="1" source="0HYdjBVHhcaTYcicsQgm-2" target="0HYdjBVHhcaTYcicsQgm-3">
          <mxGeometry relative="1" as="geometry" />
        </mxCell>
        <mxCell id="0HYdjBVHhcaTYcicsQgm-7" value="True" style="edgeLabel;html=1;align=center;verticalAlign=middle;resizable=0;points=[];" vertex="1" connectable="0" parent="0HYdjBVHhcaTYcicsQgm-6">
          <mxGeometry x="-0.2" y="-4" relative="1" as="geometry">
            <mxPoint x="4" as="offset" />
          </mxGeometry>
        </mxCell>
        <mxCell id="0HYdjBVHhcaTYcicsQgm-2" value="&lt;font color=&quot;#ffffff&quot;&gt;i = 0&lt;/font&gt;" style="rounded=0;whiteSpace=wrap;html=1;fillColor=#000000;strokeColor=#FFFFFF;" vertex="1" parent="1">
          <mxGeometry x="540" y="240" width="120" height="60" as="geometry" />
        </mxCell>
        <mxCell id="0HYdjBVHhcaTYcicsQgm-9" style="edgeStyle=orthogonalEdgeStyle;rounded=0;orthogonalLoop=1;jettySize=auto;html=1;exitX=0;exitY=0.5;exitDx=0;exitDy=0;entryX=1;entryY=0.5;entryDx=0;entryDy=0;strokeColor=#FFFFFF;" edge="1" parent="1" source="0HYdjBVHhcaTYcicsQgm-3" target="0HYdjBVHhcaTYcicsQgm-8">
          <mxGeometry relative="1" as="geometry" />
        </mxCell>
        <mxCell id="0HYdjBVHhcaTYcicsQgm-10" value="&amp;nbsp;i &amp;lt; 9&amp;nbsp;" style="edgeLabel;html=1;align=center;verticalAlign=middle;resizable=0;points=[];" vertex="1" connectable="0" parent="0HYdjBVHhcaTYcicsQgm-9">
          <mxGeometry x="0.025" relative="1" as="geometry">
            <mxPoint as="offset" />
          </mxGeometry>
        </mxCell>
        <mxCell id="0HYdjBVHhcaTYcicsQgm-12" style="edgeStyle=orthogonalEdgeStyle;rounded=0;orthogonalLoop=1;jettySize=auto;html=1;exitX=1;exitY=0.5;exitDx=0;exitDy=0;entryX=1;entryY=0.5;entryDx=0;entryDy=0;strokeColor=#FFFFFF;" edge="1" parent="1" source="0HYdjBVHhcaTYcicsQgm-3" target="0HYdjBVHhcaTYcicsQgm-56">
          <mxGeometry relative="1" as="geometry">
            <mxPoint x="930" y="400" as="targetPoint" />
            <Array as="points">
              <mxPoint x="1060" y="400" />
              <mxPoint x="1060" y="700" />
            </Array>
          </mxGeometry>
        </mxCell>
        <mxCell id="0HYdjBVHhcaTYcicsQgm-13" value="&amp;nbsp;!(i &amp;lt; 9)&amp;nbsp;" style="edgeLabel;html=1;align=center;verticalAlign=middle;resizable=0;points=[];" vertex="1" connectable="0" parent="0HYdjBVHhcaTYcicsQgm-12">
          <mxGeometry x="-0.2" y="1" relative="1" as="geometry">
            <mxPoint as="offset" />
          </mxGeometry>
        </mxCell>
        <mxCell id="0HYdjBVHhcaTYcicsQgm-3" value="&lt;font color=&quot;#ffffff&quot;&gt;NULL&lt;/font&gt;" style="rounded=0;whiteSpace=wrap;html=1;fillColor=#000000;strokeColor=#FFFFFF;" vertex="1" parent="1">
          <mxGeometry x="540" y="370" width="120" height="60" as="geometry" />
        </mxCell>
        <mxCell id="0HYdjBVHhcaTYcicsQgm-15" style="edgeStyle=orthogonalEdgeStyle;rounded=0;orthogonalLoop=1;jettySize=auto;html=1;exitX=0.5;exitY=1;exitDx=0;exitDy=0;entryX=0.5;entryY=0;entryDx=0;entryDy=0;strokeColor=#FFFFFF;" edge="1" parent="1" source="0HYdjBVHhcaTYcicsQgm-8" target="0HYdjBVHhcaTYcicsQgm-14">
          <mxGeometry relative="1" as="geometry" />
        </mxCell>
        <mxCell id="0HYdjBVHhcaTYcicsQgm-22" value="True" style="edgeLabel;html=1;align=center;verticalAlign=middle;resizable=0;points=[];" vertex="1" connectable="0" parent="0HYdjBVHhcaTYcicsQgm-15">
          <mxGeometry x="-0.1765" y="-1" relative="1" as="geometry">
            <mxPoint y="1" as="offset" />
          </mxGeometry>
        </mxCell>
        <mxCell id="0HYdjBVHhcaTYcicsQgm-8" value="&lt;font color=&quot;#ffffff&quot;&gt;j = 0&lt;/font&gt;" style="rounded=0;whiteSpace=wrap;html=1;fillColor=#000000;strokeColor=#FFFFFF;" vertex="1" parent="1">
          <mxGeometry x="350" y="400" width="120" height="60" as="geometry" />
        </mxCell>
        <mxCell id="0HYdjBVHhcaTYcicsQgm-18" style="edgeStyle=orthogonalEdgeStyle;rounded=0;orthogonalLoop=1;jettySize=auto;html=1;entryX=0.5;entryY=1;entryDx=0;entryDy=0;strokeColor=#FFFFFF;" edge="1" parent="1" source="0HYdjBVHhcaTYcicsQgm-14" target="0HYdjBVHhcaTYcicsQgm-38">
          <mxGeometry relative="1" as="geometry">
            <Array as="points">
              <mxPoint x="940" y="620" />
            </Array>
          </mxGeometry>
        </mxCell>
        <mxCell id="0HYdjBVHhcaTYcicsQgm-19" value="&amp;nbsp;! ( j &amp;lt; 9 )&amp;nbsp;" style="edgeLabel;html=1;align=center;verticalAlign=middle;resizable=0;points=[];" vertex="1" connectable="0" parent="0HYdjBVHhcaTYcicsQgm-18">
          <mxGeometry x="-0.4941" y="5" relative="1" as="geometry">
            <mxPoint as="offset" />
          </mxGeometry>
        </mxCell>
        <mxCell id="0HYdjBVHhcaTYcicsQgm-20" style="edgeStyle=orthogonalEdgeStyle;rounded=0;orthogonalLoop=1;jettySize=auto;html=1;entryX=0.5;entryY=0;entryDx=0;entryDy=0;strokeColor=#FFFFFF;" edge="1" parent="1" source="0HYdjBVHhcaTYcicsQgm-14" target="0HYdjBVHhcaTYcicsQgm-16">
          <mxGeometry relative="1" as="geometry" />
        </mxCell>
        <mxCell id="0HYdjBVHhcaTYcicsQgm-21" value="&amp;nbsp;j &amp;lt; 9" style="edgeLabel;html=1;align=center;verticalAlign=middle;resizable=0;points=[];" vertex="1" connectable="0" parent="0HYdjBVHhcaTYcicsQgm-20">
          <mxGeometry x="-0.1765" y="-3" relative="1" as="geometry">
            <mxPoint as="offset" />
          </mxGeometry>
        </mxCell>
        <mxCell id="0HYdjBVHhcaTYcicsQgm-14" value="&lt;font color=&quot;#ffffff&quot;&gt;NULL&lt;/font&gt;" style="rounded=0;whiteSpace=wrap;html=1;fillColor=#000000;strokeColor=#FFFFFF;" vertex="1" parent="1">
          <mxGeometry x="470" y="590" width="120" height="60" as="geometry" />
        </mxCell>
        <mxCell id="0HYdjBVHhcaTYcicsQgm-24" style="edgeStyle=orthogonalEdgeStyle;rounded=0;orthogonalLoop=1;jettySize=auto;html=1;entryX=0;entryY=0.5;entryDx=0;entryDy=0;strokeColor=#FFFFFF;" edge="1" parent="1" source="0HYdjBVHhcaTYcicsQgm-16" target="0HYdjBVHhcaTYcicsQgm-26">
          <mxGeometry relative="1" as="geometry">
            <mxPoint x="310" y="660" as="targetPoint" />
          </mxGeometry>
        </mxCell>
        <mxCell id="0HYdjBVHhcaTYcicsQgm-27" value="&amp;nbsp;( board[i][j] == &#39;.&#39; )" style="edgeLabel;html=1;align=center;verticalAlign=middle;resizable=0;points=[];" vertex="1" connectable="0" parent="0HYdjBVHhcaTYcicsQgm-24">
          <mxGeometry x="0.0562" y="5" relative="1" as="geometry">
            <mxPoint x="39" y="-5" as="offset" />
          </mxGeometry>
        </mxCell>
        <mxCell id="0HYdjBVHhcaTYcicsQgm-63" style="edgeStyle=orthogonalEdgeStyle;rounded=0;orthogonalLoop=1;jettySize=auto;html=1;entryX=0;entryY=0.5;entryDx=0;entryDy=0;strokeColor=#FFFFFF;" edge="1" parent="1" source="0HYdjBVHhcaTYcicsQgm-16" target="0HYdjBVHhcaTYcicsQgm-62">
          <mxGeometry relative="1" as="geometry" />
        </mxCell>
        <mxCell id="0HYdjBVHhcaTYcicsQgm-64" value="! (board[i][j] == &#39;.&#39;)&amp;nbsp;" style="edgeLabel;html=1;align=center;verticalAlign=middle;resizable=0;points=[];" vertex="1" connectable="0" parent="0HYdjBVHhcaTYcicsQgm-63">
          <mxGeometry x="-0.0482" y="-1" relative="1" as="geometry">
            <mxPoint as="offset" />
          </mxGeometry>
        </mxCell>
        <mxCell id="0HYdjBVHhcaTYcicsQgm-16" value="&lt;font color=&quot;#ffffff&quot;&gt;NULL&lt;/font&gt;" style="rounded=0;whiteSpace=wrap;html=1;fillColor=#000000;strokeColor=#FFFFFF;" vertex="1" parent="1">
          <mxGeometry x="220" y="710" width="120" height="60" as="geometry" />
        </mxCell>
        <mxCell id="0HYdjBVHhcaTYcicsQgm-30" style="edgeStyle=orthogonalEdgeStyle;rounded=0;orthogonalLoop=1;jettySize=auto;html=1;entryX=0.5;entryY=0;entryDx=0;entryDy=0;strokeColor=#FFFFFF;" edge="1" parent="1" source="0HYdjBVHhcaTYcicsQgm-26" target="0HYdjBVHhcaTYcicsQgm-29">
          <mxGeometry relative="1" as="geometry" />
        </mxCell>
        <mxCell id="0HYdjBVHhcaTYcicsQgm-31" value="(num &amp;lt;= 9)" style="edgeLabel;html=1;align=center;verticalAlign=middle;resizable=0;points=[];" vertex="1" connectable="0" parent="0HYdjBVHhcaTYcicsQgm-30">
          <mxGeometry x="-0.1267" y="-1" relative="1" as="geometry">
            <mxPoint as="offset" />
          </mxGeometry>
        </mxCell>
        <mxCell id="0HYdjBVHhcaTYcicsQgm-34" style="edgeStyle=orthogonalEdgeStyle;rounded=0;orthogonalLoop=1;jettySize=auto;html=1;entryX=0.5;entryY=1;entryDx=0;entryDy=0;strokeColor=#FFFFFF;" edge="1" parent="1" source="0HYdjBVHhcaTYcicsQgm-26" target="0HYdjBVHhcaTYcicsQgm-33">
          <mxGeometry relative="1" as="geometry" />
        </mxCell>
        <mxCell id="0HYdjBVHhcaTYcicsQgm-35" value="! (num &amp;lt;= 9)" style="edgeLabel;html=1;align=center;verticalAlign=middle;resizable=0;points=[];" vertex="1" connectable="0" parent="0HYdjBVHhcaTYcicsQgm-34">
          <mxGeometry x="0.2386" y="3" relative="1" as="geometry">
            <mxPoint as="offset" />
          </mxGeometry>
        </mxCell>
        <mxCell id="0HYdjBVHhcaTYcicsQgm-26" value="&lt;font color=&quot;#ffffff&quot;&gt;num = &#39;i&#39;&lt;/font&gt;" style="rounded=0;whiteSpace=wrap;html=1;fillColor=#000000;strokeColor=#FFFFFF;" vertex="1" parent="1">
          <mxGeometry x="220" y="880" width="120" height="60" as="geometry" />
        </mxCell>
        <mxCell id="0HYdjBVHhcaTYcicsQgm-46" style="edgeStyle=orthogonalEdgeStyle;rounded=0;orthogonalLoop=1;jettySize=auto;html=1;entryX=0;entryY=0.5;entryDx=0;entryDy=0;strokeColor=#FFFFFF;" edge="1" parent="1" source="0HYdjBVHhcaTYcicsQgm-29" target="0HYdjBVHhcaTYcicsQgm-44">
          <mxGeometry relative="1" as="geometry" />
        </mxCell>
        <mxCell id="0HYdjBVHhcaTYcicsQgm-47" value="isPossible(board,i,j,num)" style="edgeLabel;html=1;align=center;verticalAlign=middle;resizable=0;points=[];" vertex="1" connectable="0" parent="0HYdjBVHhcaTYcicsQgm-46">
          <mxGeometry x="-0.2134" y="-1" relative="1" as="geometry">
            <mxPoint as="offset" />
          </mxGeometry>
        </mxCell>
        <mxCell id="0HYdjBVHhcaTYcicsQgm-49" style="edgeStyle=orthogonalEdgeStyle;rounded=0;orthogonalLoop=1;jettySize=auto;html=1;entryX=1;entryY=0.5;entryDx=0;entryDy=0;strokeColor=#FFFFFF;" edge="1" parent="1" source="0HYdjBVHhcaTYcicsQgm-29" target="0HYdjBVHhcaTYcicsQgm-48">
          <mxGeometry relative="1" as="geometry" />
        </mxCell>
        <mxCell id="0HYdjBVHhcaTYcicsQgm-52" value="&lt;font style=&quot;font-size: 12px;&quot;&gt;!isPossible(board,i,j,num)&lt;/font&gt;" style="edgeLabel;html=1;align=center;verticalAlign=middle;resizable=0;points=[];" vertex="1" connectable="0" parent="0HYdjBVHhcaTYcicsQgm-49">
          <mxGeometry x="-0.2418" y="-1" relative="1" as="geometry">
            <mxPoint as="offset" />
          </mxGeometry>
        </mxCell>
        <mxCell id="0HYdjBVHhcaTYcicsQgm-29" value="&lt;font color=&quot;#ffffff&quot;&gt;NULL&lt;/font&gt;" style="rounded=0;whiteSpace=wrap;html=1;fillColor=#000000;strokeColor=#FFFFFF;" vertex="1" parent="1">
          <mxGeometry x="220" y="1020" width="120" height="60" as="geometry" />
        </mxCell>
        <mxCell id="0HYdjBVHhcaTYcicsQgm-36" style="edgeStyle=orthogonalEdgeStyle;rounded=0;orthogonalLoop=1;jettySize=auto;html=1;exitX=0.5;exitY=0;exitDx=0;exitDy=0;strokeColor=#FFFFFF;entryX=0.75;entryY=1;entryDx=0;entryDy=0;" edge="1" parent="1" source="0HYdjBVHhcaTYcicsQgm-33" target="0HYdjBVHhcaTYcicsQgm-14">
          <mxGeometry relative="1" as="geometry" />
        </mxCell>
        <mxCell id="0HYdjBVHhcaTYcicsQgm-37" value="True" style="edgeLabel;html=1;align=center;verticalAlign=middle;resizable=0;points=[];" vertex="1" connectable="0" parent="0HYdjBVHhcaTYcicsQgm-36">
          <mxGeometry x="-0.0412" y="1" relative="1" as="geometry">
            <mxPoint as="offset" />
          </mxGeometry>
        </mxCell>
        <mxCell id="0HYdjBVHhcaTYcicsQgm-33" value="&lt;font color=&quot;#ffffff&quot;&gt;j++&lt;/font&gt;" style="rounded=0;whiteSpace=wrap;html=1;fillColor=#000000;strokeColor=#FFFFFF;" vertex="1" parent="1">
          <mxGeometry x="420" y="700" width="120" height="60" as="geometry" />
        </mxCell>
        <mxCell id="0HYdjBVHhcaTYcicsQgm-39" style="edgeStyle=orthogonalEdgeStyle;rounded=0;orthogonalLoop=1;jettySize=auto;html=1;entryX=0.5;entryY=1;entryDx=0;entryDy=0;strokeColor=#FFFFFF;" edge="1" parent="1" source="0HYdjBVHhcaTYcicsQgm-38" target="0HYdjBVHhcaTYcicsQgm-3">
          <mxGeometry relative="1" as="geometry" />
        </mxCell>
        <mxCell id="0HYdjBVHhcaTYcicsQgm-40" value="True" style="edgeLabel;html=1;align=center;verticalAlign=middle;resizable=0;points=[];" vertex="1" connectable="0" parent="0HYdjBVHhcaTYcicsQgm-39">
          <mxGeometry x="0.2533" y="1" relative="1" as="geometry">
            <mxPoint as="offset" />
          </mxGeometry>
        </mxCell>
        <mxCell id="0HYdjBVHhcaTYcicsQgm-38" value="&lt;font color=&quot;#ffffff&quot;&gt;i++&lt;/font&gt;" style="rounded=0;whiteSpace=wrap;html=1;fillColor=#000000;strokeColor=#FFFFFF;" vertex="1" parent="1">
          <mxGeometry x="880" y="460" width="120" height="60" as="geometry" />
        </mxCell>
        <mxCell id="0HYdjBVHhcaTYcicsQgm-54" style="edgeStyle=orthogonalEdgeStyle;rounded=0;orthogonalLoop=1;jettySize=auto;html=1;entryX=0;entryY=0.5;entryDx=0;entryDy=0;strokeColor=#FFFFFF;" edge="1" parent="1" source="0HYdjBVHhcaTYcicsQgm-44" target="0HYdjBVHhcaTYcicsQgm-53">
          <mxGeometry relative="1" as="geometry" />
        </mxCell>
        <mxCell id="0HYdjBVHhcaTYcicsQgm-55" value="True" style="edgeLabel;html=1;align=center;verticalAlign=middle;resizable=0;points=[];" vertex="1" connectable="0" parent="0HYdjBVHhcaTYcicsQgm-54">
          <mxGeometry x="-0.1567" y="-1" relative="1" as="geometry">
            <mxPoint as="offset" />
          </mxGeometry>
        </mxCell>
        <mxCell id="0HYdjBVHhcaTYcicsQgm-44" value="&lt;font color=&quot;#ffffff&quot;&gt;board[i][j] = num;&lt;/font&gt;" style="rounded=0;whiteSpace=wrap;html=1;fillColor=#000000;strokeColor=#FFFFFF;" vertex="1" parent="1">
          <mxGeometry x="520" y="930" width="120" height="60" as="geometry" />
        </mxCell>
        <mxCell id="0HYdjBVHhcaTYcicsQgm-50" style="edgeStyle=orthogonalEdgeStyle;rounded=0;orthogonalLoop=1;jettySize=auto;html=1;entryX=0;entryY=0.5;entryDx=0;entryDy=0;strokeColor=#FFFFFF;" edge="1" parent="1" source="0HYdjBVHhcaTYcicsQgm-48" target="0HYdjBVHhcaTYcicsQgm-29">
          <mxGeometry relative="1" as="geometry">
            <Array as="points">
              <mxPoint x="200" y="1120" />
              <mxPoint x="60" y="1120" />
              <mxPoint x="60" y="1050" />
            </Array>
          </mxGeometry>
        </mxCell>
        <mxCell id="0HYdjBVHhcaTYcicsQgm-51" value="True" style="edgeLabel;html=1;align=center;verticalAlign=middle;resizable=0;points=[];" vertex="1" connectable="0" parent="0HYdjBVHhcaTYcicsQgm-50">
          <mxGeometry x="0.1059" y="3" relative="1" as="geometry">
            <mxPoint y="1" as="offset" />
          </mxGeometry>
        </mxCell>
        <mxCell id="0HYdjBVHhcaTYcicsQgm-48" value="&lt;font color=&quot;#ffffff&quot;&gt;num++;&lt;/font&gt;" style="rounded=0;whiteSpace=wrap;html=1;fillColor=#000000;strokeColor=#FFFFFF;" vertex="1" parent="1">
          <mxGeometry x="140" y="1200" width="120" height="60" as="geometry" />
        </mxCell>
        <mxCell id="0HYdjBVHhcaTYcicsQgm-57" style="edgeStyle=orthogonalEdgeStyle;rounded=0;orthogonalLoop=1;jettySize=auto;html=1;entryX=0.5;entryY=1;entryDx=0;entryDy=0;strokeColor=#FFFFFF;" edge="1" parent="1" source="0HYdjBVHhcaTYcicsQgm-53" target="0HYdjBVHhcaTYcicsQgm-56">
          <mxGeometry relative="1" as="geometry" />
        </mxCell>
        <mxCell id="0HYdjBVHhcaTYcicsQgm-60" value="solve(board)" style="edgeLabel;html=1;align=center;verticalAlign=middle;resizable=0;points=[];" vertex="1" connectable="0" parent="0HYdjBVHhcaTYcicsQgm-57">
          <mxGeometry x="0.0429" y="4" relative="1" as="geometry">
            <mxPoint as="offset" />
          </mxGeometry>
        </mxCell>
        <mxCell id="0HYdjBVHhcaTYcicsQgm-59" style="edgeStyle=orthogonalEdgeStyle;rounded=0;orthogonalLoop=1;jettySize=auto;html=1;entryX=0.5;entryY=0;entryDx=0;entryDy=0;strokeColor=#FFFFFF;" edge="1" parent="1" source="0HYdjBVHhcaTYcicsQgm-53" target="0HYdjBVHhcaTYcicsQgm-58">
          <mxGeometry relative="1" as="geometry" />
        </mxCell>
        <mxCell id="0HYdjBVHhcaTYcicsQgm-61" value="! (solve(board))" style="edgeLabel;html=1;align=center;verticalAlign=middle;resizable=0;points=[];" vertex="1" connectable="0" parent="0HYdjBVHhcaTYcicsQgm-59">
          <mxGeometry x="-0.1172" y="-2" relative="1" as="geometry">
            <mxPoint as="offset" />
          </mxGeometry>
        </mxCell>
        <mxCell id="0HYdjBVHhcaTYcicsQgm-53" value="&lt;font color=&quot;#ffffff&quot;&gt;NULL&lt;/font&gt;" style="rounded=0;whiteSpace=wrap;html=1;fillColor=#000000;strokeColor=#FFFFFF;" vertex="1" parent="1">
          <mxGeometry x="800" y="827" width="120" height="60" as="geometry" />
        </mxCell>
        <mxCell id="0HYdjBVHhcaTYcicsQgm-56" value="&lt;font color=&quot;#ffffff&quot;&gt;return true&lt;/font&gt;" style="rounded=0;whiteSpace=wrap;html=1;fillColor=#000000;strokeColor=#FFFFFF;" vertex="1" parent="1">
          <mxGeometry x="800" y="670" width="120" height="60" as="geometry" />
        </mxCell>
        <mxCell id="0HYdjBVHhcaTYcicsQgm-58" value="&lt;font color=&quot;#ffffff&quot;&gt;return false&lt;/font&gt;" style="rounded=0;whiteSpace=wrap;html=1;fillColor=#000000;strokeColor=#FFFFFF;" vertex="1" parent="1">
          <mxGeometry x="800" y="990" width="120" height="60" as="geometry" />
        </mxCell>
        <mxCell id="0HYdjBVHhcaTYcicsQgm-65" style="edgeStyle=orthogonalEdgeStyle;rounded=0;orthogonalLoop=1;jettySize=auto;html=1;strokeColor=#FFFFFF;" edge="1" parent="1" source="0HYdjBVHhcaTYcicsQgm-62">
          <mxGeometry relative="1" as="geometry">
            <mxPoint x="530" y="590" as="targetPoint" />
            <Array as="points">
              <mxPoint x="330" y="540" />
              <mxPoint x="330" y="570" />
              <mxPoint x="530" y="570" />
            </Array>
          </mxGeometry>
        </mxCell>
        <mxCell id="0HYdjBVHhcaTYcicsQgm-66" value="True" style="edgeLabel;html=1;align=center;verticalAlign=middle;resizable=0;points=[];" vertex="1" connectable="0" parent="0HYdjBVHhcaTYcicsQgm-65">
          <mxGeometry x="0.6" y="1" relative="1" as="geometry">
            <mxPoint as="offset" />
          </mxGeometry>
        </mxCell>
        <mxCell id="0HYdjBVHhcaTYcicsQgm-62" value="&lt;font color=&quot;#ffffff&quot;&gt;j++&lt;/font&gt;" style="rounded=0;whiteSpace=wrap;html=1;fillColor=#000000;strokeColor=#FFFFFF;" vertex="1" parent="1">
          <mxGeometry x="90" y="510" width="120" height="60" as="geometry" />
        </mxCell>
        <mxCell id="0HYdjBVHhcaTYcicsQgm-70" value="&lt;span style=&quot;background-color: rgb(255, 255, 255);&quot;&gt;&amp;nbsp;1&amp;nbsp;&lt;/span&gt;" style="text;html=1;align=center;verticalAlign=middle;resizable=0;points=[];autosize=1;strokeColor=none;fillColor=none;" vertex="1" parent="1">
          <mxGeometry x="650" y="88" width="40" height="30" as="geometry" />
        </mxCell>
        <mxCell id="0HYdjBVHhcaTYcicsQgm-71" value="&lt;span style=&quot;background-color: rgb(255, 255, 255);&quot;&gt;&amp;nbsp;2&amp;nbsp;&lt;/span&gt;" style="text;html=1;align=center;verticalAlign=middle;resizable=0;points=[];autosize=1;strokeColor=none;fillColor=none;" vertex="1" parent="1">
          <mxGeometry x="650" y="230" width="40" height="30" as="geometry" />
        </mxCell>
        <mxCell id="0HYdjBVHhcaTYcicsQgm-72" value="&lt;span style=&quot;background-color: rgb(255, 255, 255);&quot;&gt;&amp;nbsp;3&amp;nbsp;&lt;/span&gt;" style="text;html=1;align=center;verticalAlign=middle;resizable=0;points=[];autosize=1;strokeColor=none;fillColor=none;" vertex="1" parent="1">
          <mxGeometry x="650" y="360" width="40" height="30" as="geometry" />
        </mxCell>
        <mxCell id="0HYdjBVHhcaTYcicsQgm-73" value="&lt;span style=&quot;background-color: rgb(255, 255, 255);&quot;&gt;&amp;nbsp;4&amp;nbsp;&lt;/span&gt;" style="text;html=1;align=center;verticalAlign=middle;resizable=0;points=[];autosize=1;strokeColor=none;fillColor=none;" vertex="1" parent="1">
          <mxGeometry x="440" y="370" width="40" height="30" as="geometry" />
        </mxCell>
        <mxCell id="0HYdjBVHhcaTYcicsQgm-74" value="&lt;span style=&quot;background-color: rgb(255, 255, 255);&quot;&gt;&amp;nbsp;5&amp;nbsp;&lt;/span&gt;" style="text;html=1;align=center;verticalAlign=middle;resizable=0;points=[];autosize=1;strokeColor=none;fillColor=none;" vertex="1" parent="1">
          <mxGeometry x="550" y="560" width="40" height="30" as="geometry" />
        </mxCell>
        <mxCell id="0HYdjBVHhcaTYcicsQgm-75" value="&lt;span style=&quot;background-color: rgb(255, 255, 255);&quot;&gt;&amp;nbsp;6&amp;nbsp;&lt;/span&gt;" style="text;html=1;align=center;verticalAlign=middle;resizable=0;points=[];autosize=1;strokeColor=none;fillColor=none;" vertex="1" parent="1">
          <mxGeometry x="210" y="490" width="40" height="30" as="geometry" />
        </mxCell>
        <mxCell id="0HYdjBVHhcaTYcicsQgm-76" value="&lt;span style=&quot;background-color: rgb(255, 255, 255);&quot;&gt;&amp;nbsp;7&amp;nbsp;&lt;/span&gt;" style="text;html=1;align=center;verticalAlign=middle;resizable=0;points=[];autosize=1;strokeColor=none;fillColor=none;" vertex="1" parent="1">
          <mxGeometry x="300" y="685" width="40" height="30" as="geometry" />
        </mxCell>
        <mxCell id="0HYdjBVHhcaTYcicsQgm-77" value="&lt;span style=&quot;background-color: rgb(255, 255, 255);&quot;&gt;&amp;nbsp;8&amp;nbsp;&lt;/span&gt;" style="text;html=1;align=center;verticalAlign=middle;resizable=0;points=[];autosize=1;strokeColor=none;fillColor=none;" vertex="1" parent="1">
          <mxGeometry x="530" y="685" width="40" height="30" as="geometry" />
        </mxCell>
        <mxCell id="0HYdjBVHhcaTYcicsQgm-78" value="&lt;span style=&quot;background-color: rgb(255, 255, 255);&quot;&gt;&amp;nbsp;9&amp;nbsp;&lt;/span&gt;" style="text;html=1;align=center;verticalAlign=middle;resizable=0;points=[];autosize=1;strokeColor=none;fillColor=none;" vertex="1" parent="1">
          <mxGeometry x="330" y="870" width="40" height="30" as="geometry" />
        </mxCell>
        <mxCell id="0HYdjBVHhcaTYcicsQgm-79" value="&lt;span style=&quot;background-color: rgb(255, 255, 255);&quot;&gt;&amp;nbsp;10&amp;nbsp;&lt;/span&gt;" style="text;html=1;align=center;verticalAlign=middle;resizable=0;points=[];autosize=1;strokeColor=none;fillColor=none;" vertex="1" parent="1">
          <mxGeometry x="330" y="1010" width="40" height="30" as="geometry" />
        </mxCell>
        <mxCell id="0HYdjBVHhcaTYcicsQgm-80" value="&lt;span style=&quot;background-color: rgb(255, 255, 255);&quot;&gt;&amp;nbsp;11&amp;nbsp;&lt;/span&gt;" style="text;html=1;align=center;verticalAlign=middle;resizable=0;points=[];autosize=1;strokeColor=none;fillColor=none;" vertex="1" parent="1">
          <mxGeometry x="220" y="1180" width="40" height="30" as="geometry" />
        </mxCell>
        <mxCell id="0HYdjBVHhcaTYcicsQgm-81" value="&lt;span style=&quot;background-color: rgb(255, 255, 255);&quot;&gt;&amp;nbsp;12&amp;nbsp;&lt;/span&gt;" style="text;html=1;align=center;verticalAlign=middle;resizable=0;points=[];autosize=1;strokeColor=none;fillColor=none;" vertex="1" parent="1">
          <mxGeometry x="610" y="900" width="40" height="30" as="geometry" />
        </mxCell>
        <mxCell id="0HYdjBVHhcaTYcicsQgm-82" value="&lt;span style=&quot;background-color: rgb(255, 255, 255);&quot;&gt;&amp;nbsp;13&amp;nbsp;&lt;/span&gt;" style="text;html=1;align=center;verticalAlign=middle;resizable=0;points=[];autosize=1;strokeColor=none;fillColor=none;" vertex="1" parent="1">
          <mxGeometry x="890" y="797" width="40" height="30" as="geometry" />
        </mxCell>
        <mxCell id="0HYdjBVHhcaTYcicsQgm-83" value="&lt;span style=&quot;background-color: rgb(255, 255, 255);&quot;&gt;&amp;nbsp;14&amp;nbsp;&lt;/span&gt;" style="text;html=1;align=center;verticalAlign=middle;resizable=0;points=[];autosize=1;strokeColor=none;fillColor=none;" vertex="1" parent="1">
          <mxGeometry x="890" y="960" width="40" height="30" as="geometry" />
        </mxCell>
        <mxCell id="0HYdjBVHhcaTYcicsQgm-84" value="&lt;span style=&quot;background-color: rgb(255, 255, 255);&quot;&gt;&amp;nbsp;15&amp;nbsp;&lt;/span&gt;" style="text;html=1;align=center;verticalAlign=middle;resizable=0;points=[];autosize=1;strokeColor=none;fillColor=none;" vertex="1" parent="1">
          <mxGeometry x="880" y="640" width="40" height="30" as="geometry" />
        </mxCell>
        <mxCell id="0HYdjBVHhcaTYcicsQgm-85" value="&lt;span style=&quot;background-color: rgb(255, 255, 255);&quot;&gt;&amp;nbsp;16&amp;nbsp;&lt;/span&gt;" style="text;html=1;align=center;verticalAlign=middle;resizable=0;points=[];autosize=1;strokeColor=none;fillColor=none;" vertex="1" parent="1">
          <mxGeometry x="950" y="430" width="40" height="30" as="geometry" />
        </mxCell>
      </root>
    </mxGraphModel>
  </diagram>
</mxfile>
